<svg width="2180" height="1855" viewBox="0 0 2180 1855" fill="none" xmlns="http://www.w3.org/2000/svg">
<path d="M1.41561e-06 358C1.41561e-06 276 66 210 148 210H297V314H290H148C148 314 173 314 148 314C124 314 104 334 104 358C104 383 124 403 148 403C66 403 148 403 148 403C230 403 297 470 297 552C297 634 230 700 148 700H1.41561e-06V596H7H148C124 596 148 596 148 596C173 596 193 576 193 552C193 527 173 507 148 507C66 507 1.41561e-06 440 1.41561e-06 358ZM553.914 -4.76837e-05V209H640.914V314H553.914V700H448.914V314H346.914V209H448.914V-4.76837e-05H553.914ZM1075.9 254V210H1180.9V700H1075.9V656C1035.9 684 987.898 700 935.898 700C800.898 700 690.898 590 690.898 455V210H795.898V254V455C795.898 532 858.898 595 935.898 595C1012.9 595 1075.9 532 1075.9 455V254ZM1616.17 254V-4.76837e-05H1721.17V700H1616.17V656C1576.17 684 1528.17 700 1476.17 700C1341.17 700 1231.17 590 1231.17 455C1231.17 320 1341.17 210 1476.17 210C1528.17 210 1576.17 226 1616.17 254ZM1476.17 595C1553.17 595 1616.17 532 1616.17 455C1616.17 378 1553.17 315 1476.17 315C1399.17 315 1336.17 378 1336.17 455C1336.17 532 1399.17 595 1476.17 595ZM2035.45 210H2152.45L2020.45 436L2012.45 450V700H1911.45V450L1903.45 436L1771.45 210H1888.45L1962.45 336L2035.45 210ZM1.41561e-06 1213C1.41561e-06 1131 66 1065 148 1065H297V1169H290H148C148 1169 173 1169 148 1169C124 1169 104 1189 104 1213C104 1238 124 1258 148 1258C66 1258 148 1258 148 1258C230 1258 297 1325 297 1407C297 1489 230 1555 148 1555H1.41561e-06V1451H7H148C124 1451 148 1451 148 1451C173 1451 193 1431 193 1407C193 1382 173 1362 148 1362C66 1362 1.41561e-06 1295 1.41561e-06 1213ZM601.914 1065C736.914 1065 846.914 1175 846.914 1310C846.914 1445 736.914 1555 601.914 1555C549.914 1555 501.914 1539 461.914 1511V1855H356.914V1065H461.914V1109C501.914 1081 549.914 1065 601.914 1065ZM601.914 1450C678.914 1450 741.914 1387 741.914 1310C741.914 1233 678.914 1170 601.914 1170C524.914 1170 461.914 1233 461.914 1310C461.914 1387 524.914 1450 601.914 1450ZM1142.19 1065C1277.19 1065 1387.19 1175 1387.19 1310C1387.19 1445 1277.19 1555 1142.19 1555C1007.19 1555 897.188 1445 897.188 1310C897.188 1175 1007.19 1065 1142.19 1065ZM1142.19 1450C1219.19 1450 1282.19 1387 1282.19 1310C1282.19 1233 1219.19 1170 1142.19 1170C1065.19 1170 1002.19 1233 1002.19 1310C1002.19 1387 1065.19 1450 1142.19 1450ZM1624.46 855V1064H1711.46V1169H1624.46V1555H1519.46V1169H1417.46V1064H1519.46V855H1624.46ZM1866.45 1109C1906.45 1081 1954.45 1065 2006.45 1065C2074.45 1065 2135.45 1092 2179.45 1137L2105.45 1211C2080.45 1186 2045.45 1170 2006.45 1170C1929.45 1170 1866.45 1233 1866.45 1310V1555H1761.45V1310V1065H1866.45V1109Z" fill="black"/>
</svg>
